<?xml version="1.0" encoding="UTF-8"?>
<svg id="Layer_1" data-name="Layer 1" xmlns="http://www.w3.org/2000/svg" viewBox="0 0 870.83 560.79">
  <defs>
    <style>
      .cls-1 {
        fill: #4c4d4e;
      }

      .cls-1, .cls-2, .cls-3, .cls-4 {
        fill-rule: evenodd;
        stroke-width: 0px;
      }

      .cls-2 {
        fill: #ffcd07;
      }

      .cls-3 {
        fill: #ffcd00;
      }

      .cls-4 {
        fill: #ba893a;
      }
    </style>
  </defs>
  <path class="cls-1" d="M322.71,83.28C336.06,35.08,380.65,0,432.25,0s94.82,33.27,109.31,80.34c139.63,37.11,256.63,152.08,256.63,303.02,0,9.73,3.39,25.36,6.79,39.38h9.05c36.43,0,56.81,36.21,56.81,68.57s-20.15,69.47-56.81,69.47H56.57c-36.66,0-56.57-36.2-56.57-69.47s20.14-68.57,56.57-68.57h12c3.84-14.26,7.92-30.55,7.92-39.38,0-148.91,112.25-260.48,246.22-300.08h0Z"/>
  <path class="cls-2" d="M793.66,486.79c-.45-2.27-1.14-4.98-1.59-7.92-6.33-18.78-21.72-74.91-21.72-95.51,0-159.1-148.91-288.53-332.9-288.53S104.33,224.27,104.33,383.36c0,18.34-15.84,72.87-27.16,103.43h716.49Z"/>
  <path class="cls-3" d="M432.25,199.83c47.75,0,86.45-38.48,86.45-86.23s-38.7-85.76-86.45-85.76-85.77,38.47-85.77,85.76,38.69,86.23,85.77,86.23h0Z"/>
  <path class="cls-4" d="M240.79,150.5c30.1-18.79,64.28-33.49,100.48-43.22,2.26,5.66,3.62,12.44,3.62,19.23v231.28c0,28.52-23.53,51.83-51.82,51.83s-52.28-23.31-52.28-51.83v-207.29Z"/>
  <path class="cls-4" d="M524.81,105.01c35.98,8.59,69.47,22.17,98.89,39.82v212.95c0,28.52-23.3,51.83-51.6,51.83s-51.82-23.31-51.82-51.83V126.51c0-7.92,1.13-14.71,4.53-21.49h0Z"/>
  <path class="cls-4" d="M842.99,491.31c0,23.31-12.9,41.64-28.96,41.64H56.57c-16.29,0-28.96-18.33-28.96-41.64s12.67-40.74,28.96-40.74h757.46c16.07,0,28.96,18.11,28.96,40.74h0Z"/>
</svg>